<svg width="160" height="136" xmlns="http://www.w3.org/2000/svg" xmlns:xlink="http://www.w3.org/1999/xlink" overflow="hidden"><defs><clipPath id="clip0"><path d="M560 303 720 303 720 439 560 439Z" fill-rule="evenodd" clip-rule="evenodd"/></clipPath></defs><g clip-path="url(#clip0)" transform="translate(-560 -303)"><path d="M640 303 640 417 639.999 417 628.513 415.842C602.539 410.527 583 387.545 583 360 583 328.52 608.52 303 640 303Z" fill="#E7E6E6" fill-rule="evenodd"/><text fill="#ED7D31" font-family="Arial,Arial_MSFontService,sans-serif" font-weight="900" font-size="59" transform="translate(595.477 380)">B</text><path d="M30.4038 2.68387C28.397 3.685 26.5908 4.98652 24.885 6.3881 15.4528 14.6974 15.0514 31.9169 15.0514 31.9169L0 31.9169C4.1141 36.1216 3.11067 36.0215 23.0788 55.944 23.0788 55.944 44.0504 36.0215 48.1644 31.9169L32.7117 31.9169C32.7117 31.9169 32.7117 15.8988 45.9569 15.8988 60.5066 15.8988 60.2055 39.9259 60.2055 39.9259L63.2158 78.97C63.2158 78.97 67.7313 51.539 67.4302 25.81 67.2295 6.98878 47.3617-5.82568 30.4038 2.68387Z" fill="#333F50" fill-rule="evenodd" transform="matrix(0.840502 0.541809 0.541809 -0.840502 578.576 411.374)"/><path d="M639 417 639 303 639.001 303 650.487 304.158C676.461 309.473 696 332.455 696 360 696 391.48 670.48 417 639 417Z" fill="#E7E6E6" fill-rule="evenodd"/><text fill="#ED7D31" font-family="Arial,Arial_MSFontService,sans-serif" font-weight="900" font-size="59" transform="translate(638.413 380)">A</text></g></svg>